<svg xmlns="http://www.w3.org/2000/svg" viewBox="0 0 520 270" role="img" aria-labelledby="title desc">
  <title id="title">ECLAT Elevated Essentials logo</title>
  <desc id="desc">Gold crescent Eclat logo with vertical letters and Elevated Essentials text.</desc>
  <defs>
    <linearGradient id="gold" x1="0" x2="1" y1="0" y2="1">
      <stop offset="0" stop-color="#f8df93"/>
      <stop offset="0.5" stop-color="#c99744"/>
      <stop offset="1" stop-color="#ffe9a7"/>
    </linearGradient>
  </defs>
  <rect width="520" height="270" fill="none"/>
  <path d="M235 40c-62 0-112 41-112 95 0 52 50 94 112 94 20 0 39-4 55-12-23 23-58 38-98 38-74 0-134-53-134-118S118 18 192 18c39 0 75 15 99 39-17-10-36-17-56-17Z" fill="url(#gold)"/>
  <path d="M112 140c38-6 82-8 133-5 32 2 64 1 94-5-22 13-53 19-92 18-58-2-103 0-135 8-16 4-27 8-34 13 4-13 15-22 34-29Z" fill="url(#gold)"/>
  <text x="350" y="76" fill="url(#gold)" font-family="Georgia, 'Times New Roman', serif" font-size="38" font-weight="700" text-anchor="middle">C</text>
  <text x="350" y="121" fill="url(#gold)" font-family="Georgia, 'Times New Roman', serif" font-size="38" font-weight="700" text-anchor="middle">L</text>
  <text x="350" y="166" fill="url(#gold)" font-family="Georgia, 'Times New Roman', serif" font-size="38" font-weight="700" text-anchor="middle">A</text>
  <text x="350" y="211" fill="url(#gold)" font-family="Georgia, 'Times New Roman', serif" font-size="38" font-weight="700" text-anchor="middle">T</text>
  <text x="260" y="254" fill="url(#gold)" font-family="Georgia, 'Times New Roman', serif" font-size="32" font-weight="700" text-anchor="middle">Elevated Essentials</text>
</svg>
