<svg xmlns="http://www.w3.org/2000/svg" viewBox="0 0 900 1100" role="img" aria-labelledby="title desc">
  <title id="title">ECLAT Core Tee Noir</title>
  <desc id="desc">Black t-shirt product mockup with a small ECLAT front mark.</desc>
  <defs>
    <linearGradient id="shirt" x1="0" x2="1" y1="0" y2="1">
      <stop offset="0" stop-color="#303030"/>
      <stop offset="0.45" stop-color="#111111"/>
      <stop offset="1" stop-color="#070707"/>
    </linearGradient>
    <filter id="shadow" x="-20%" y="-20%" width="140%" height="140%">
      <feDropShadow dx="0" dy="34" stdDeviation="28" flood-color="#000000" flood-opacity="0.25"/>
    </filter>
  </defs>
  <rect width="900" height="1100" fill="#f3f4f4"/>
  <path d="M292 180c52 38 105 56 158 56s106-18 158-56l148 74 78 228-154 54-42-92 10 476H252l10-476-42 92-154-54 78-228 148-74Z" fill="url(#shirt)" filter="url(#shadow)"/>
  <path d="M342 178c30 48 67 72 108 72s78-24 108-72" fill="none" stroke="#2f2f2f" stroke-width="28" stroke-linecap="round"/>
  <path d="M332 184c36 64 75 96 118 96s82-32 118-96" fill="none" stroke="#111111" stroke-width="17" stroke-linecap="round"/>
  <text x="450" y="458" text-anchor="middle" fill="#ffffff" font-family="Inter, Arial, Helvetica, sans-serif" font-size="58" font-weight="900">ECLAT</text>
  <rect x="382" y="482" width="136" height="4" rx="2" fill="#ff6645"/>
  <path d="M270 338c-16 138-20 284-12 438M630 338c16 138 20 284 12 438" fill="none" stroke="#ffffff" stroke-opacity="0.06" stroke-width="3"/>
</svg>
